<?xml version="1.0" standalone="no"?><!DOCTYPE svg PUBLIC "-//W3C//DTD SVG 1.1//EN" "http://www.w3.org/Graphics/SVG/1.1/DTD/svg11.dtd"><svg t="1668969434550" class="icon" viewBox="0 0 1034 1024" version="1.1" xmlns="http://www.w3.org/2000/svg" p-id="1282" xmlns:xlink="http://www.w3.org/1999/xlink" width="201.953125" height="200"><path d="M752.370526 163.121404l-265.880701-71.141053c-138.689123-37.367018-281.689825 45.271579-318.338246 183.960702l-68.985263 258.694736c-37.367018 138.689123 45.271579 281.689825 183.960702 318.338246l265.880701 71.141053c138.689123 37.367018 281.689825-45.271579 318.338246-183.960702l68.985263-258.694737c37.367018-138.689123-45.271579-280.971228-183.960702-318.338245z" fill="#6BBAFD" opacity=".302" p-id="1283"></path><path d="M654.641404 135.814737h-258.694737c-135.09614 0-244.322807 109.226667-244.322807 244.322807v251.508772c0 135.09614 109.226667 244.322807 244.322807 244.322807h258.694737c135.09614 0 244.322807-109.226667 244.322807-244.322807v-251.508772c0-135.09614-109.226667-244.322807-244.322807-244.322807z" fill="#6BBAFD" p-id="1284"></path><path d="M679.073684 686.978246c-30.181053 0-56.769123 17.964912-75.452631 45.990175h150.905263c-18.683509-28.74386-45.990175-45.990175-75.452632-45.990175z m-264.443509-42.397193l208.392983-37.367018 7.904561 45.271579c2.874386 16.527719 18.683509 27.306667 35.211228 24.432281l29.462457-5.030176c16.527719-2.874386 27.306667-18.683509 24.43228-35.211228l-12.934737-74.734035-18.683508-104.915088c-2.874386-16.527719-18.683509-27.306667-35.211228-24.43228l-18.683509-104.915088c-5.748772-33.055439-37.367018-55.33193-69.70386-49.583158l-208.392982 36.648421c-33.055439 5.748772-54.613333 37.367018-48.864562 70.422456l18.683509 104.915088c-16.527719 2.874386-27.306667 18.683509-24.432281 35.211228l18.683509 104.915088 12.934737 74.734035c2.874386 16.527719 18.683509 27.306667 35.211228 24.432281l29.462456-5.030176c16.527719-2.874386 27.306667-18.683509 24.432281-35.211228l-7.904562-44.552982z m245.76-128.628772c4.311579 22.995088-10.778947 44.552982-33.774035 48.145965-22.276491 4.311579-43.834386-11.497544-48.145965-33.774035-4.311579-22.995088 10.778947-44.552982 33.774036-48.145965 22.995088-4.311579 44.552982 11.497544 48.145964 33.774035zM365.047018 360.016842c2.155789-0.718596 208.392982-37.367018 210.548771-37.367017 7.185965 0 13.653333 5.030175 15.090527 12.934736l18.683509 104.915088-237.855439 42.397193-18.683509-104.915088c-1.437193-8.623158 4.311579-16.527719 12.216141-17.964912z m31.618245 245.76c-22.276491 4.311579-43.834386-11.497544-48.145965-33.774035-4.311579-22.995088 10.778947-44.552982 33.774035-48.145965 22.276491-4.311579 43.834386 11.497544 48.145965 33.774035 3.592982 22.276491-11.497544 43.834386-33.774035 48.145965z" fill="#FFFFFF" p-id="1285"></path></svg>