<?xml version="1.0" standalone="no"?><!DOCTYPE svg PUBLIC "-//W3C//DTD SVG 1.1//EN" "http://www.w3.org/Graphics/SVG/1.1/DTD/svg11.dtd"><svg t="1668969482617" class="icon" viewBox="0 0 1034 1024" version="1.1" xmlns="http://www.w3.org/2000/svg" p-id="1926" xmlns:xlink="http://www.w3.org/1999/xlink" width="201.953125" height="200"><path d="M776.802807 165.277193l-265.880702-71.141053C372.232982 56.769123 229.950877 139.407719 192.58386 278.096842l-68.985264 258.694737C86.231579 675.480702 168.151579 817.762807 307.559298 855.129825l265.880702 71.141052c138.689123 37.367018 281.689825-45.271579 318.338246-183.960702l68.985263-258.694736c37.367018-138.689123-45.271579-280.971228-183.960702-318.338246z" fill="#EFA66C" opacity=".302" p-id="1927"></path><path d="M679.792281 137.970526h-258.694737c-135.09614 0-244.322807 109.226667-244.322807 244.322807v251.508772c0 135.09614 109.226667 244.322807 244.322807 244.322807h258.694737c135.09614 0 244.322807-109.226667 244.322807-244.322807v-251.508772c0-135.09614-109.945263-244.322807-244.322807-244.322807z" fill="#EFA66C" p-id="1928"></path><path d="M738.717193 474.273684l-29.462456-122.161403c-15.809123-33.055439-86.231579-50.301754-156.654035-50.301755s-140.844912 16.527719-156.654035 50.301755L366.484211 474.273684c-24.432281 17.964912-40.241404 46.708772-40.241404 79.764211 0 34.492632 17.964912 65.392281 45.271579 83.357193v45.990175c0 16.527719 13.653333 30.181053 30.181053 30.181053h30.181052c16.527719 0 30.181053-13.653333 30.181053-30.181053v-30.181052h181.086316v30.181052c0 16.527719 13.653333 30.181053 30.181052 30.181053h30.181053c16.527719 0 30.181053-13.653333 30.181053-30.181053v-45.990175c27.306667-17.964912 45.271579-48.145965 45.271578-83.357193 0-33.055439-15.809123-61.799298-40.241403-79.764211zM416.785965 595.716491c-22.995088 0-41.678596-18.683509-41.678597-41.678596 0-22.995088 18.683509-41.678596 41.678597-41.678597s41.678596 18.683509 41.678596 41.678597c0 22.995088-18.683509 41.678596-41.678596 41.678596z m7.904561-140.844912h-5.748772l20.120702-83.357193c10.778947-8.623158 51.020351-22.995088 114.256842-22.995088s103.477895 13.653333 114.256842 22.995088l20.120702 83.357193H424.690526z m263.724913 140.844912c-22.995088 0-41.678596-18.683509-41.678597-41.678596 0-22.995088 18.683509-41.678596 41.678597-41.678597 22.995088 0 41.678596 18.683509 41.678596 41.678597 0 22.995088-18.683509 41.678596-41.678596 41.678596z" fill="#FFFFFF" p-id="1929"></path></svg>