<?xml version="1.0" standalone="no"?><!DOCTYPE svg PUBLIC "-//W3C//DTD SVG 1.1//EN" "http://www.w3.org/Graphics/SVG/1.1/DTD/svg11.dtd"><svg t="1668969462498" class="icon" viewBox="0 0 1034 1024" version="1.1" xmlns="http://www.w3.org/2000/svg" p-id="1442" xmlns:xlink="http://www.w3.org/1999/xlink" width="201.953125" height="200"><path d="M771.054035 171.744561l-265.880702-71.141052C366.484211 63.236491 223.483509 145.875088 186.835088 284.564211l-68.985263 258.694736c-37.367018 138.689123 45.271579 281.689825 183.960701 318.338246l265.880702 71.141053c138.689123 37.367018 281.689825-45.271579 318.338246-183.960702l68.985263-258.694737c37.367018-138.689123-45.271579-280.971228-183.960702-318.338246z" fill="#EFA66C" opacity=".302" p-id="1443"></path><path d="M673.324912 144.437895h-258.694737c-135.09614 0-244.322807 109.226667-244.322807 244.322807v251.508772c0 135.09614 109.226667 244.322807 244.322807 244.322807h258.694737c135.09614 0 244.322807-109.226667 244.322807-244.322807v-251.508772c0-135.09614-109.226667-244.322807-244.322807-244.322807z" fill="#EFA66C" p-id="1444"></path><path d="M758.837895 547.570526l-150.905263-97.729122c-0.718596-0.718596-1.437193-0.718596-2.15579-0.718597L614.4 359.298246c0.718596-4.311579 0.718596-8.623158 0-12.934737-3.592982-38.085614-36.648421-65.392281-74.734035-61.799298-37.367018 3.592982-64.673684 37.367018-61.080702 74.734035l8.623158 89.824561c-0.718596 0.718596-1.437193 0.718596-2.155789 0.718597l-150.905264 97.729122c-8.623158 5.748772-13.653333 15.090526-13.653333 25.869474v31.618246c0 20.839298 20.839298 35.929825 40.241404 28.743859l139.407719-50.301754 8.623158 88.387368-32.336842 33.055439c-6.467368 6.467368-4.311579 14.37193-4.311579 29.462456 0 10.060351 10.060351 17.246316 19.402105 14.37193l51.738947-15.809123c2.874386-0.718596 5.748772-0.718596 8.623158 0l51.738948 15.809123c9.341754 2.874386 19.402105-4.311579 19.402105-14.37193 0-15.090526 2.155789-22.995088-4.311579-29.462456l-32.336842-33.055439 8.623158-88.387368 139.407719 50.301754c19.402105 7.185965 40.241404-7.904561 40.241404-28.743859v-31.618246c-1.437193-10.060351-7.185965-20.120702-15.809123-25.869474z" fill="#FFFFFF" p-id="1445"></path></svg>