<?xml version="1.0" standalone="no"?><!DOCTYPE svg PUBLIC "-//W3C//DTD SVG 1.1//EN" "http://www.w3.org/Graphics/SVG/1.1/DTD/svg11.dtd"><svg t="1668969466399" class="icon" viewBox="0 0 1034 1024" version="1.1" xmlns="http://www.w3.org/2000/svg" p-id="1604" xmlns:xlink="http://www.w3.org/1999/xlink" width="201.953125" height="200"><path d="M760.275088 157.372632l-265.880702-71.141053c-138.689123-37.367018-281.689825 45.271579-318.338246 183.960702l-68.985263 258.694737c-37.367018 138.689123 45.271579 281.689825 183.960702 318.338245l265.880702 71.141053c138.689123 37.367018 281.689825-45.271579 318.338245-183.960702l68.985263-258.694737c37.367018-138.689123-45.271579-281.689825-183.960701-318.338245z" fill="#01CEA1" opacity=".302" p-id="1605"></path><path d="M663.264561 130.065965h-258.694736c-135.09614 0-244.322807 109.226667-244.322807 244.322807v251.508772c0 135.09614 109.226667 244.322807 244.322807 244.322807h258.694736c135.09614 0 244.322807-109.226667 244.322807-244.322807v-251.508772c0-135.09614-109.945263-244.322807-244.322807-244.322807z" fill="#01CEA1" p-id="1606"></path><path d="M618.711579 377.263158c29.462456 0 53.17614-23.713684 53.17614-53.17614 0-29.462456-23.713684-53.17614-53.17614-53.176141s-53.17614 23.713684-53.17614 53.176141c0.718596 29.462456 24.432281 53.17614 53.17614 53.17614z m-61.080702 158.809824c7.185965-7.185965 10.060351-16.527719 8.623158-26.58807-1.437193-9.341754-7.904561-17.964912-16.527719-22.276491l-48.864562-25.150877 40.241404-29.462456 35.929824 29.462456c5.030175 4.311579 12.21614 6.467368 18.683509 6.467368h60.362105c16.527719 0 30.181053-13.653333 30.181053-30.181052 0-16.527719-13.653333-30.181053-30.181053-30.181053h-49.583157L574.877193 382.293333c-31.618246-25.150877-76.171228-26.58807-108.50807-2.874386l-27.306667 19.402106c-17.246316 12.934737-27.306667 33.055439-25.150877 54.613333 1.437193 21.557895 14.37193 40.241404 33.774035 50.301754l37.367018 18.683509-10.060351 10.060351c-17.246316-11.497544-37.367018-18.683509-59.643509-18.683509-58.206316 0-105.633684 48.145965-105.633684 106.352281s47.427368 106.352281 105.633684 106.352281 105.633684-48.145965 105.633684-106.352281c0-14.37193-2.874386-28.025263-7.904561-40.241404l44.552982-43.834386zM415.348772 666.857544c-25.150877 0-45.271579-20.839298-45.271579-45.990176 0-25.150877 20.120702-45.990175 45.271579-45.990175 6.467368 0 12.21614 1.437193 17.246316 3.592982-4.311579 10.778947-2.155789 24.432281 6.467368 33.055439 5.748772 5.748772 13.653333 8.623158 21.557895 8.623158 0 25.869474-20.120702 46.708772-45.271579 46.708772z m241.448421-152.342456c-58.206316 0-105.633684 48.145965-105.633684 106.35228s47.427368 106.352281 105.633684 106.352281 105.633684-48.145965 105.633684-106.352281-47.427368-106.352281-105.633684-106.35228z m0 152.342456c-25.150877 0-45.271579-20.839298-45.271579-45.990176 0-25.150877 20.120702-45.990175 45.271579-45.990175s45.271579 20.839298 45.271579 45.990175c0 25.150877-20.120702 45.990175-45.271579 45.990176z" fill="#FFFFFF" p-id="1607"></path></svg>